<?xml version="1.0" encoding="utf-8"?>
<!-- Generator: Adobe Illustrator 19.0.0, SVG Export Plug-In . SVG Version: 6.00 Build 0)  -->
<svg version="1.1" id="info" xmlns="http://www.w3.org/2000/svg" xmlns:xlink="http://www.w3.org/1999/xlink" x="0px" y="0px"
	 viewBox="0 0 1009 578" enable-background="new 0 0 1009 578" xml:space="preserve">
<g id="icono1" class="iconos">
	<circle r="100" cx="0" cy="0" fill="#00000012" />
	<path id="XMLID_122_" fill="#333333" d="M200.2,474.8l-1.2-0.4c-3.4-1.2-9.5-4.2-9.8-4.4c-1.2-0.6-2.7-0.2-3.4,1l-12.2,22.8
		l-0.9-2.5c1.3-0.8,2.3-2.2,2.5-3.6l1.3-7.9c0.2-1.2-0.1-2.9-0.9-3.8c-0.8-0.9-2-2-3.3-2h-12c-1.3,0-2.5,1.1-3.3,2
		c-0.8,0.9-1.1,2.3-0.9,3.6l1.3,8.1c0.2,1.4,1.2,2.8,2.5,3.7l-0.8,2.4l-11.9-22.8c-0.6-1.2-2.1-1.7-3.4-1.1
		c-0.3,0.2-7.9,3.9-11.3,5.1c-10.6,3.8-17.8,10.6-17.8,17v21.1c0,1.4,1.1,2.5,2.5,2.5c1.4,0,2.5-1.1,2.5-2.5v-21.1
		c0-4.1,6.2-9.4,14.4-12.3c3.8-1.4,7.1-2.6,9.8-3.9l13.3,25.5c0,0,0,0,0,0.1c0.3,0.5,0.7,0.9,1.3,1.1c0.3,0.1,0.6,0.1,0.8,0.1
		c1,0,2-1.2,2.4-2.2l3.1-9.3h2.5l3.1,9.3c0.4,1,1.3,1.9,2.4,1.9c0.3,0,0.6,0.1,0.8,0c0.6-0.2,1-0.5,1.3-1c0,0,0,0,0.1,0l13.6-25.4
		c2.5,1.2,5.4,2.2,8.4,3.3l1.2,0.4c8.2,2.9,14.4,8.2,14.4,12.4v21.1c0,1.4,1.1,2.5,2.5,2.5c1.4,0,2.5-1.1,2.5-2.5v-21.1
		C218,485.4,210.9,478.6,200.2,474.8z M171.5,479l-1.2,6.9c0,0-0.1,0.1-0.1,0.1h-7.5c0,0-0.1-0.1-0.1-0.1l-1.2-6.9H171.5z"/>
	<path id="XMLID_119_" fill="#333333" d="M139.9,452.5c0.1,0.1,0.2,0.3,0.3,0.5c2.5,4.4,5.6,9.8,7.3,11.7c0.2,0.3,0.5,0.6,0.7,0.9
		c2.1,2.8,5.6,7.5,18.2,7.5c13,0,16.4-4.6,18.7-7.7c0.2-0.3,0.4-0.5,0.6-0.8c1.7-2.2,4.7-7.3,7.2-11.6c0.1-0.2,0.2-0.4,0.3-0.6
		c0.6-0.6,4.7-4.8,4.3-12.7c-0.2-4.3-0.9-6-1.6-7.5c-0.2-0.4-0.2-0.4-0.2-0.8c0-1.6,0-3.5,0-5.4c0-0.7,0-1.4,0.1-2.1
		c0.2-8.9,0.5-20-7.4-26.5c-2.8-2.3-10.9-6.5-21.8-6.5c-10.8,0-19.8,4.4-22,6.7c-7.6,7.7-7.3,19.2-7.1,28.4c0,1.8,0.1,3.7,0,5.4
		c0,0.4,0,0.4-0.2,0.8c-0.7,1.5-1.4,3.2-1.6,7.5C135.2,447.7,139.3,451.9,139.9,452.5z M140.6,439.9c0.2-3.6,0.7-4.7,1.1-5.6
		c0.4-0.8,0.7-1.5,0.7-2.9c0-1.8,0-3.7,0-5.6c-0.2-8.3-0.4-18.5,5.7-24.8c1.2-1.3,9.1-5.2,18.4-5.2c9.8,0,16.8,3.9,18.6,5.4
		c6,4.9,5.8,14.2,5.6,22.5c0,0.7,0,1.4-0.1,2.1c0,1.9-0.1,3.9,0,5.6c0,1.4,0.3,2.1,0.7,2.9c0.4,0.9,0.9,1.9,1.1,5.6
		c0.3,5.9-2.7,8.8-2.7,8.9l-0.1,0.1c-0.4,0.3-0.5,0.5-1.2,1.7c-1.3,2.2-5.1,8.8-6.8,11c-0.2,0.3-0.4,0.6-0.7,0.9
		c-1.9,2.6-4.2,5.6-14.7,5.6c-10.1,0-12.3-3-14.2-5.5c-0.3-0.4-0.6-0.8-0.9-1.2c-1.1-1.2-3.3-4.9-6.8-11c-0.6-1.1-0.8-1.3-1.2-1.6
		l0,0C142.9,448.4,140.3,445.5,140.6,439.9z"/>
	<path id="XMLID_118_" fill="#333333" d="M143.8,423.3c1.2,0.7,2.7,0.3,3.4-0.9c0,0,2.3-3.9,7.2-5.5c1.2-0.4,3.1-0.1,5.3,0.4
		c2,0.4,4.3,0.8,6.9,0.8c2.6,0,4.9-0.4,7-0.8c2.3-0.4,4.3-0.7,5.6-0.3c4.5,1.6,6.7,5.3,6.7,5.4c0.5,0.8,1.3,1.3,2.2,1.3
		c0.4,0,0.8-0.1,1.2-0.3c1.2-0.7,1.6-2.2,1-3.4c-0.1-0.2-3.1-5.4-9.5-7.7c-2.5-0.9-5.2-0.4-8.1,0.1c-1.9,0.3-4,0.7-6.1,0.7
		c-2.1,0-4.1-0.4-6-0.7c-2.7-0.5-5.3-1-7.8-0.2c-6.7,2.2-9.8,7.6-9.9,7.8C142.1,421,142.6,422.6,143.8,423.3z"/>
</g>
<g id="icono2" class="iconos">
	<path id="XMLID_116_" fill="#333333" d="M380.5,475.9c1.2-0.7,1.5-2.3,0.8-3.4c-0.7-1.2-2.3-1.5-3.4-0.8c-2.5,1.6-6.2,3.2-11.1,5
		c-10.5,3.7-17.8,10.8-17.8,17.2V512c0,1.4,1.1,2.5,2.5,2.5c1.4,0,2.5-1.1,2.5-2.5v-18.2c0-3.6,5.4-9.3,14.4-12.5
		C373.7,479.5,377.7,477.6,380.5,475.9z"/>
	<path id="XMLID_115_" fill="#333333" d="M434.2,476.7c-4.2-1.5-8.2-3.3-10.9-4.9c-1.2-0.7-2.7-0.4-3.4,0.8
		c-0.7,1.2-0.4,2.7,0.8,3.4c3,1.9,7.2,3.8,11.8,5.4c8.2,2.9,14.4,8.2,14.4,12.4V512c0,1.4,1.1,2.5,2.5,2.5c1.4,0,2.5-1.1,2.5-2.5
		v-18.2C452,487.3,444.9,480.5,434.2,476.7z"/>
	<path id="XMLID_114_" fill="#333333" d="M423.2,426.7c-0.2-1.4-1.4-2.4-2.8-2.2c-6.9,0.8-12-2.9-16.8-6.5
		c-4.4-3.2-8.5-6.2-13.5-5.2c-4.2,0.9-8.1,4.5-12.2,11.6c-0.7,1.2-0.3,2.7,0.9,3.4c1.2,0.7,2.7,0.3,3.4-0.9c3.3-5.6,6.3-8.7,8.9-9.2
		c2.8-0.6,5.9,1.7,9.5,4.4c4.6,3.4,10.3,7.6,18,7.6c0.8,0,1.6,0,2.4-0.1C422.3,429.3,423.3,428.1,423.2,426.7z"/>
	<path id="XMLID_111_" fill="#333333" d="M419,468.3c0.2-0.3,0.4-0.5,0.6-0.8c1.7-2.2,4.7-7.3,7.2-11.6c0.1-0.2,0.2-0.4,0.3-0.6
		c0.6-0.6,4.7-4.8,4.3-12.7c-0.2-4.3-0.9-6-1.6-7.5c-0.2-0.4-0.2-0.4-0.2-0.8c0-1.6,0-3.5,0-5.4c0.2-9.2,0.4-20.6-7.1-28.4
		c-4.9-5-12.1-7.5-22-7.5c-4.8,0-7.2,1.3-9.7,2.6c-0.7,0.4-1.5,0.8-2.4,1.2c-0.7,0.3-1.9,0.6-3.1,0.9c-2.6,0.6-5.3,1.3-6.8,2.8
		c-7.6,7.7-7.3,19.2-7.1,28.4c0,1.8,0.1,3.7,0,5.4c0,0.4,0,0.4-0.2,0.8c-0.7,1.5-1.4,3.2-1.6,7.5c-0.4,8,3.7,12.2,4.3,12.8
		c0.1,0.1,0.2,0.3,0.3,0.5c2.5,4.4,5.6,9.8,7.3,11.7c0.2,0.3,0.5,0.6,0.7,0.9c2.1,2.8,5.6,7.5,18.2,7.5
		C413.4,476,416.8,471.4,419,468.3z M415,465.3c-1.9,2.6-4.2,5.6-14.7,5.6c-10.1,0-12.3-3-14.2-5.5c-0.3-0.4-0.6-0.8-0.9-1.2
		c-1.1-1.2-3.3-4.9-6.8-11c-0.6-1.1-0.8-1.3-1.2-1.6l0,0c-0.4-0.4-3-3.3-2.7-8.9c0.2-3.6,0.7-4.7,1.1-5.6c0.4-0.8,0.7-1.5,0.7-2.9
		c0-1.8,0-3.7,0-5.6c-0.2-8.3-0.4-18.5,5.7-24.8c0.6-0.6,3-1.1,4.4-1.5c1.5-0.3,2.8-0.7,4-1.2c1-0.5,1.9-0.9,2.7-1.3
		c2.2-1.2,3.8-2,7.4-2c8.5,0,14.5,2,18.4,6c6.1,6.2,5.9,16.5,5.7,24.8c0,1.9-0.1,3.9,0,5.6c0,1.4,0.3,2.1,0.7,2.9
		c0.4,0.9,0.9,1.9,1.1,5.6c0.3,5.9-2.7,8.8-2.7,8.9l-0.1,0.1c-0.4,0.3-0.5,0.5-1.2,1.7c-1.3,2.2-5.1,8.8-6.8,11
		C415.4,464.7,415.2,465,415,465.3z"/>
	<path id="XMLID_108_" fill="#333333" d="M378,498.1v-4.3c0-4.1,1.7-8.2,4.7-11.2c1-1,1-2.6,0-3.5c-1-1-2.6-1-3.5,0
		c-3.9,4-6.2,9.4-6.2,14.8v4.3c-3.5,1.1-6,4.3-6,8.1c0,4.7,3.8,8.5,8.5,8.5s8.5-3.8,8.5-8.5C384,502.4,381.5,499.1,378,498.1z
		 M375.5,509.7c-1.9,0-3.5-1.6-3.5-3.5c0-1.9,1.6-3.5,3.5-3.5s3.5,1.6,3.5,3.5C379,508.1,377.4,509.7,375.5,509.7z"/>
	<path id="XMLID_107_" fill="#333333" d="M425.9,491.7c-0.5-4.6-2.6-9-6.1-12.5c-1-1-2.6-1-3.5,0c-1,1-1,2.6,0,3.5
		c2.6,2.6,4.1,5.7,4.6,9c-6.2,1.4-10.8,7.3-10.8,14.5v5.8c0,0.9,0.3,1.8,0.9,2.3c0.5,0.5,1.4,0.7,2.1,0.7h2c1.4,0,2.5-1.1,2.5-2.5
		c0-1.4-1.1-2.5-2.5-2.5v-3.8c0-5.4,3.8-9.8,8.5-9.8s8.5,4.4,8.5,9.8v3.8c-1.4,0-2.5,1.1-2.5,2.5c0,1.4,1.1,2.5,2.5,2.5h2
		c0.8,0,1.5-0.2,2.2-0.8c0.7-0.6,0.8-1.3,0.8-2.1v-5.8C437,499,432.2,493,425.9,491.7z"/>
</g>
<g id="icono3" class="iconos">
	<path id="XMLID_105_" fill="#333333" d="M601.6,479.9c4.4-1.6,9.1-3.3,12.3-5.3c1.2-0.7,1.5-2.3,0.8-3.4c-0.7-1.2-2.3-1.5-3.4-0.8
		c-2.8,1.8-7.1,3.3-11.3,4.8c-8.9,3.2-17.9,9.7-17.9,17.1V513c0,1.4,1.1,2.5,2.5,2.5c1.4,0,2.5-1.1,2.5-2.5v-20.8
		C587,488.1,593.3,482.8,601.6,479.9z"/>
	<path id="XMLID_104_" fill="#333333" d="M667.6,475.1c-4.3-1.5-8.4-3-11.1-4.7c-1.2-0.7-2.7-0.4-3.4,0.8c-0.7,1.2-0.3,2.7,0.8,3.4
		c3.1,1.9,7.3,3.4,12,5.1c8,2.8,14.1,8.2,14.1,12.4V513c0,1.4,1.1,2.5,2.5,2.5c1.4,0,2.5-1.1,2.5-2.5v-20.8
		C685,485.7,678,478.8,667.6,475.1z"/>
	<path id="XMLID_101_" fill="#333333" d="M629.8,397h9c1.3,0,2.4-1,2.5-2.3l2-24c0.1-0.7-0.2-1.4-0.7-1.9c-0.5-0.5-1.1-0.8-1.8-0.8
		h-13c-0.7,0-1.4,0.3-1.8,0.8c-0.5,0.5-0.7,1.2-0.7,1.9l2,24C627.4,396,628.5,397,629.8,397z M638.1,373l-1.6,19h-4.4l-1.6-19H638.1
		z"/>
	<path id="XMLID_98_" fill="#333333" d="M604.1,435.4c-0.4,1.3-0.7,2.9-0.8,5.7c-0.4,8,3.7,12.2,4.3,12.8c0.1,0.1,0.2,0.3,0.3,0.5
		c2.5,4.4,5.6,9.8,7.3,11.7c0.2,0.3,0.5,0.6,0.7,0.9c2.1,2.8,5.6,7.5,18.2,7.5c13,0,16.4-4.6,18.7-7.7c0.2-0.3,0.4-0.5,0.6-0.8
		c1.7-2.2,4.7-7.3,7.2-11.6c0.1-0.2,0.3-0.4,0.3-0.6c0.6-0.6,4.7-4.8,4.3-12.7c-0.1-2.7-0.4-4.4-0.8-5.6
		c11.6-2.5,17.7-6.5,17.7-11.7c0-3.8-3.9-9-11.2-11.7c-0.4-6.2-3.3-28.5-23.9-35.3c-1.3-0.4-2.7,0.3-3.2,1.6
		c-0.4,1.3,0.3,2.7,1.6,3.1c20.1,6.7,20.6,32,20.6,32.3c0,0,0,0.1,0,0.1c0,1.1,0.7,2.2,1.8,2.5c6.2,1.8,9.4,5.8,9.4,7.5
		c0,1.6-3.7,4.6-13.7,6.8c0-1.1,0-2,0-3.1c0.1-2.7,0.1-7.4,0.1-7.4h0c0.1-1-0.6-2.4-1.8-2.7c-0.5-0.2-12.5-3.8-26.7-3.8
		c-14.2,0-27,3.2-27.6,3.3c-1.6,0.3-2.1,1.8-2.2,2.9c-0.2,3.2-0.2,4.8-0.1,7.6c0,1.1,0,2.1,0,3.2c-9.8-2.2-13.5-5.1-13.5-6.7
		c0-1.7,3.1-5.7,9.2-7.5c1.1-0.3,1.8-1.4,1.8-2.5c0,0,0-0.1,0-0.1c0-0.3,0.5-25.5,20.5-32.2c1.3-0.4,2-1.9,1.6-3.2
		c-0.4-1.3-1.9-2.1-3.2-1.6c-20.5,6.9-23.4,29.1-23.8,35.3c-7.2,2.7-11,7.9-11,11.7C586.6,428.9,592.6,432.8,604.1,435.4z
		 M658.4,421.4c0,1.7-0.1,4.1-0.1,5.8c0,1.9-0.1,3.9,0,5.6c0,1.4,0.3,2.1,0.7,2.9c0.4,0.9,0.9,1.9,1.1,5.6c0.3,5.9-2.7,8.8-2.7,8.9
		l-0.1,0.1c-0.4,0.3-0.5,0.5-1.2,1.7c-1.3,2.2-5.1,8.8-6.8,11c-0.2,0.3-0.4,0.6-0.7,0.9c-1.9,2.6-4.2,5.6-14.7,5.6
		c-10.1,0-12.3-3-14.2-5.5c-0.3-0.4-0.6-0.8-0.9-1.2c-1.1-1.2-3.3-4.9-6.8-11c-0.6-1.1-0.8-1.3-1.2-1.6l0,0c-0.4-0.4-3-3.3-2.7-8.9
		c0.2-3.7,0.7-4.7,1.1-5.6c0.4-0.8,0.7-1.5,0.7-2.9c0-1.8,0-3.7,0-5.6c0-2.3,0-3.7,0.1-5.9c3.7-0.8,14-2.9,24.9-2.9
		C645.3,418.4,654.6,420.5,658.4,421.4z"/>
	<path id="XMLID_97_" fill="#333333" d="M633.5,477.5c-1.4,0-2.5,1.1-2.5,2.5v33c0,1.4,1.1,2.5,2.5,2.5c1.4,0,2.5-1.1,2.5-2.5v-33
		C636,478.6,634.9,477.5,633.5,477.5z"/>
	<path id="XMLID_96_" fill="#333333" d="M625,499h-33c-1.4,0-2.5,1.1-2.5,2.5s1.1,2.5,2.5,2.5h33c1.4,0,2.5-1.1,2.5-2.5
		S626.4,499,625,499z"/>
	<path id="XMLID_95_" fill="#333333" d="M625,508h-33c-1.4,0-2.5,1.1-2.5,2.5s1.1,2.5,2.5,2.5h33c1.4,0,2.5-1.1,2.5-2.5
		S626.4,508,625,508z"/>
	<path id="XMLID_94_" fill="#333333" d="M675,499h-33c-1.4,0-2.5,1.1-2.5,2.5s1.1,2.5,2.5,2.5h33c1.4,0,2.5-1.1,2.5-2.5
		S676.4,499,675,499z"/>
	<path id="XMLID_93_" fill="#333333" d="M675,508h-33c-1.4,0-2.5,1.1-2.5,2.5s1.1,2.5,2.5,2.5h33c1.4,0,2.5-1.1,2.5-2.5
		S676.4,508,675,508z"/>
</g>
<g id="icono4" class="iconos">
	<g id="XMLID_90_">
		<path id="XMLID_91_" fill="#333333" d="M837,428.7v-31.4l27.4-0.7c1.4,0,2.5-1,2.4-2.4c0-1.4-1.1-2.3-2.5-2.3c0,0,0,0-0.1,0
			l-29.8,0.6c-1.4,0-2.4,1-2.4,2.3v33.8c0,1.4,1.1,2.5,2.5,2.5C835.9,431.2,837,430.1,837,428.7z"/>
	</g>
	<g id="XMLID_88_">
		<path id="XMLID_89_" fill="#333333" d="M843.5,476c-2.7,1.7-6.8,3.2-10.5,4.5c-8.4,3-17,9.2-17,16.3v17.9c0,1.4,1.1,2.5,2.5,2.5
			c1.4,0,2.5-1.1,2.5-2.5v-17.9c0-3.9,5.9-8.9,13.6-11.6c4.1-1.5,8.4-3,11.5-5c1.2-0.7,1.5-2.3,0.8-3.4
			C846.2,475.6,844.7,475.2,843.5,476z"/>
	</g>
	<g id="XMLID_86_">
		<path id="XMLID_87_" fill="#333333" d="M897.6,480.4c-4.3-1.5-7.6-2.8-10.1-4.3c-1.2-0.7-2.7-0.4-3.4,0.8
			c-0.7,1.2-0.3,2.7,0.8,3.4c2.9,1.8,6.5,3.2,11,4.8c7.9,2.8,14.1,7.9,14.1,11.7v17.9c0,1.4,1.1,2.5,2.5,2.5c1.4,0,2.5-1.1,2.5-2.5
			v-17.9C915,489.7,906.3,483.5,897.6,480.4z"/>
	</g>
	<g id="XMLID_81_">
		<path id="XMLID_82_" fill="#333333" d="M890.5,460.4c0.6-0.6,4.5-4.6,4.1-12.2c-0.2-4.1-0.8-5.8-1.5-7.2c-0.2-0.4-0.2-0.4-0.2-0.8
			c0-1.6,0-3.4,0-5.1c0-2.3-0.6-4.6-1.2-6.8c-0.3-1.1-0.6-2.2-0.8-3.2c0.1-0.3,0.2-0.6,0.2-0.9v-22.1l18.9-5.5
			c2.8-0.8,3.2-2.5,3.2-3.4s-0.5-2.6-3.3-3.3l-40.5-10.3c-2.3-0.6-5.8-0.6-8.2-0.1l-40.5,9.5c-2.9,0.7-3.4,2.3-3.4,3.2
			c0,0.9,0.3,2.6,3.1,3.5l7.5,2.3c1.3,0.4,2.7-0.3,3.1-1.6c0.4-1.3-0.3-2.7-1.6-3.1l-2.2-0.7l35.1-8.2c1.6-0.4,4.3-0.3,5.8,0.1
			l35.2,8.9l-35.3,10.3c-1.4,0.4-4,0.4-5.4-0.1c0,0-0.1,0-0.1,0l-20.6-5.5c-1.3-0.4-2.7,0.4-3.1,1.8c-0.2,0.7,0,1.5,0.4,2v21
			c-0.3,0.4-0.5,0.8-0.5,1.3c-0.1,1.3-0.3,2.6-0.5,3.9c-0.4,2.2-0.7,4.6-0.7,6.8c0,1.7,0.1,3.5,0,5.1c0,0.4,0,0.4-0.2,0.8
			c-0.7,1.4-1.3,3.1-1.5,7.2c-0.3,7.6,3.5,11.6,4.1,12.2c0.1,0.1,0.1,0.3,0.2,0.4c2.4,4.2,5.4,9.3,7,11.2c0.2,0.3,0.4,0.5,0.7,0.9
			c2,2.7,5.3,7.1,17.3,7.1c12.4,0,15.7-4.4,17.8-7.3c0.2-0.3,0.4-0.5,0.6-0.7c1.6-2.1,4.5-7,6.8-11
			C890.3,460.7,890.4,460.5,890.5,460.4z M865.2,409.1c1.4,0,2.9-0.2,4-0.5l16.8-4.9v18.8c-3.6,1.2-12.5,3.8-21.5,3.8
			c-8.9,0-17.2-2.6-20.5-3.7V404l17,4.5C862.2,408.9,863.7,409.1,865.2,409.1z M887.1,456.7L887.1,456.7c-0.5,0.3-0.6,0.6-1.2,1.7
			c-1.2,2.1-4.8,8.4-6.4,10.4c-0.2,0.3-0.4,0.6-0.6,0.9c-1.8,2.5-3.9,5.3-13.8,5.3c-9.5,0-11.6-2.8-13.3-5.1
			c-0.3-0.4-0.6-0.8-0.9-1.1c-1-1.2-3.2-4.7-6.4-10.4c-0.6-1-0.7-1.3-1.1-1.6l0,0c-0.4-0.4-2.8-3.1-2.6-8.3c0.2-3.4,0.6-4.4,1-5.3
			c0.4-0.8,0.7-1.5,0.7-2.8c0-1.7,0-3.5,0-5.3c0-1.8,0.3-3.8,0.6-6c0.1-0.5,0.2-1,0.2-1.5c4,1.4,12.3,3.7,21.4,3.7
			c8.9,0,17.4-2.2,21.8-3.6c0.2,0.7,0.4,1.4,0.6,2c0.6,1.9,1.1,3.8,1,5.3c0,1.8-0.1,3.7,0,5.3c0,1.3,0.3,2,0.7,2.8
			c0.4,0.9,0.9,1.8,1,5.3C889.8,453.9,887.1,456.7,887.1,456.7z"/>
	</g>
	<g id="XMLID_79_">
		<path id="XMLID_80_" fill="#333333" d="M864.1,503.5c-0.6,0-1.2-0.2-1.7-0.7l-17.6-16c-1-0.9-1.1-2.5-0.2-3.5
			c0.9-1,2.5-1.1,3.5-0.2l15.9,14.5l16.8-15c1-0.9,2.6-0.8,3.5,0.2c0.9,1,0.8,2.6-0.2,3.5l-18.5,16.6
			C865.3,503.3,864.7,503.5,864.1,503.5z"/>
	</g>
</g>
<rect id="recg1" class="rectangulos" x="102.5" y="54.2" fill="#333333" width="118" height="118"/>
<rect id="recg2" class="rectangulos" x="336.5" y="54.2" fill="#333333" width="118" height="118"/>
<rect id="recg3" class="rectangulos" x="571.3" y="54.2" fill="#333333" width="118" height="118"/>
<rect id="recg4" class="rectangulos" x="804.6" y="54.2" fill="#333333" width="118" height="118"/>
<rect id="rec1" class="rectangulos" x="192.5" y="144.2" fill="#CB6120" width="28" height="28"/>
<rect id="rec2" class="rectangulos" x="408.5" y="126.2" fill="#CB6120" width="46" height="46"/>
<rect id="rec3" class="rectangulos" x="598.5" y="81.4" fill="#CB6120" width="90.8" height="90.8"/>
<rect id="rec4" class="rectangulos" x="840.6" y="90.2" fill="#CB6120" width="82" height="82"/>

<path id="curva1" fill="none" stroke="#CB6120" stroke-width="40" stroke-miterlimit="10" d="M80,352c0-47.8,38.7-86.5,86.5-86.5
	S253,304.2,253,352"/>
<path id="curva2" fill="none" stroke="#CB6120" stroke-width="40" stroke-miterlimit="10" d="M314,352c0-47.8,38.7-86.5,86.5-86.5
	S487,304.2,487,352"/>
<path id="curva3" fill="none" stroke="#CB6120" stroke-width="40" stroke-miterlimit="10" d="M548,352c0-47.8,38.7-86.5,86.5-86.5
	S721,304.2,721,352"/>
<path id="curva4" fill="none" stroke="#CB6120" stroke-width="40" stroke-miterlimit="10" d="M782,352c0-47.8,38.7-86.5,86.5-86.5
	c47.8,0,86.5,38.7,86.5,86.5"/>
</svg>
